<mxfile host="Electron" agent="Mozilla/5.0 (Macintosh; Intel Mac OS X 10_15_7) AppleWebKit/537.36 (KHTML, like Gecko) draw.io/27.0.9 Chrome/134.0.6998.205 Electron/35.4.0 Safari/537.36" version="27.0.9">
  <diagram id="EHD1lapXk6rC4JzmkvKU" name="Page-1">
    <mxGraphModel dx="1122" dy="1962" grid="1" gridSize="10" guides="1" tooltips="1" connect="1" arrows="1" fold="1" page="1" pageScale="1" pageWidth="850" pageHeight="1100" math="0" shadow="0">
      <root>
        <mxCell id="0" />
        <mxCell id="1" parent="0" />
        <mxCell id="NDOgM_JSvhHd9fuMqUDp-21" value="" style="rounded=0;whiteSpace=wrap;html=1;strokeColor=none;" parent="1" vertex="1">
          <mxGeometry x="115" y="-180" width="605" height="420" as="geometry" />
        </mxCell>
        <mxCell id="4Zy3eIdNENbfcTK7_Kx1-33" value="" style="group" parent="1" vertex="1" connectable="0">
          <mxGeometry x="360.00000000000006" y="69" width="95.43" height="120.56" as="geometry" />
        </mxCell>
        <mxCell id="4Zy3eIdNENbfcTK7_Kx1-21" value="" style="shape=image;html=1;verticalAlign=top;verticalLabelPosition=bottom;labelBackgroundColor=#ffffff;imageAspect=0;aspect=fixed;image=https://cdn0.iconfinder.com/data/icons/software-engineering-and-video-gaming/512/77_hacker_user_gammer_programmer-128.png;rounded=1;strokeWidth=2;fillColor=#636363;clipPath=inset(40.63% 14.84% 10.94% 10.94%);" parent="4Zy3eIdNENbfcTK7_Kx1-33" vertex="1">
          <mxGeometry y="90" width="95.43" height="62.27" as="geometry" />
        </mxCell>
        <mxCell id="4Zy3eIdNENbfcTK7_Kx1-10" value="" style="shape=image;html=1;verticalAlign=top;verticalLabelPosition=bottom;labelBackgroundColor=#ffffff;imageAspect=0;aspect=fixed;image=https://cdn0.iconfinder.com/data/icons/kameleon-free-pack/110/Hacker-128.png;clipPath=inset(10.94% 10.94% 32.81% 10.94%);" parent="4Zy3eIdNENbfcTK7_Kx1-33" vertex="1">
          <mxGeometry x="11.714106145251407" y="38.16" width="72" height="51.84" as="geometry" />
        </mxCell>
        <mxCell id="gCakKhsyF8Uj0cIt4Kup-3" value="" style="sketch=0;pointerEvents=1;shadow=0;dashed=0;html=1;strokeColor=none;fillColor=#FF0000;labelPosition=center;verticalLabelPosition=bottom;verticalAlign=top;outlineConnect=0;align=center;shape=mxgraph.office.servers.web_server;" parent="1" vertex="1">
          <mxGeometry x="630.0000000000002" y="-80.00000000000003" width="70.32" height="83.5" as="geometry" />
        </mxCell>
        <mxCell id="gCakKhsyF8Uj0cIt4Kup-9" value="" style="curved=1;endArrow=none;html=1;startArrow=classic;startFill=1;endFill=0;strokeColor=#000000;flowAnimation=1;flowAnimationDirection=reverse;" parent="1" edge="1">
          <mxGeometry width="50" height="50" relative="1" as="geometry">
            <mxPoint x="620" y="-70" as="sourcePoint" />
            <mxPoint x="230" y="-20" as="targetPoint" />
            <Array as="points">
              <mxPoint x="410" y="-130" />
            </Array>
          </mxGeometry>
        </mxCell>
        <mxCell id="aHq0wy39mx1l_re9a6LS-3" value="" style="shape=image;verticalLabelPosition=bottom;labelBackgroundColor=default;verticalAlign=top;aspect=fixed;imageAspect=0;image=data:image/png,iVBORw0KGgoAAAANSUhEUgAAAK0AAACmCAYAAACoaA+AAAAACXBIWXMAAA7DAAAOwwHHb6hkAAAAGXRFWHRTb2Z0d2FyZQB3d3cuaW5rc2NhcGUub3Jnm+48GgAAGF1JREFUeJztnXuQHXWVxz+n70wwvBNAJSR3IiRgJLryEkRUdONqWaJbW4DlLoK6JZQC8wJMdFVGBQwqmZkYtLCWdcXH1sZ1fQRXXaKLCshTVEAIBJK5CSiCJDyTzNzb3/3j1zcMw330nbn9mulP1a2putO//p3+9bmnz++c8/s15OTk5OTk5OTk5OTk5OTk5OTk5OTk5OTk5CSH4EjBtwS3B3+PTFqmnJyaCOYIVgp2CTTuMya4SnBQ0jLm5AAg8ARnCv4yQVknfp4Q9Ag6kpY5ZwYjWCa4q4myTvzcJViWtOw5MwxBUXBNi8o68bNOcFjS15IzzRHsE/itO6eosNXPzuB8+yR9bTnTjMBv/YDgkZDKOBpY0tGQxz8SnN9L+lpzpgGC4wQ3tWA9r6uGuQSLBWtbaHuH4KSkrzknowjmBX6rH1LhNgjeVedcrU7Y1gm64r7mnIwimC1YLngqpIJtC47fo8l5OwVnCx4Led5nA39377iuPSeDCE4RPBRSqSqBJX5Zi33MFQwLyiH72SIXB7aorjsngwiOEvyyhcf39YLXTrHPJYKfttDnzYIT2nXNORlFcEDSVi+w7g9Gad1zpgGBf9kj2N6CfzkgmB2RPLMCecL60U8H8jT0o3OmCXIz+btDKocvF7Lqikm2eXLFNZWQ8t0vOC0O2XISQHC44NoWfMjbBW9ISNZjBTe2IOt6wdIkZM2JAMH+ql0yWO/ziFxoKtHslMAEpwlGQspdLYE8MEm5c6aAni8ZfDTkTd8lNynbN2nZxyPYM/Bfd4S8jr8qL4HMHoKTBb9r4fG6TnBo0nI3QrBArVWW3St4R9Jy5zRhJtzY6fiDnJHMtEfodHF9ZiSa4ZMVZXSSOWNRHhbajTIUzpuRKA/A10WTS5wUk5Z72qLnU51Phrwpz2gGpjo1+RT1S5KWfVqhrBWVDMgrDunM4rAeLg7qW/Ou0IK4RVAKioGiItUCCpYAg8DbQza5FegxuDk6qRqzYEhvMo9BfI5G+DLkQdmHL+7s5PLHzrVn4pRHcBQwBLwpZJPrgV6D30cm1BRJpdIK5gIXA+cChRBNHgY+AXzTQFHKVo9Dh1UsV7gUj38SVGxiOM3wgSeBz5QOZg2nWyVO+QSnAMPAK0Ic7gPfBi40+Eukgk2CVCmt3I3+EHAp4cJSzwFfBi4xiNWCVVk4qP19YwXQjwsl1f2RCXwDT8b9HvSN9Nj/xCao63820A38C+GWrW8HVgJDBruilK0VUqO0cruuDBI+LHUtcL7B5siEasSAOopz+BBwGWIurY1lBafcv5DRs6XH7o5ExjoIDgE+D5xBOLnvBy4wN+aJk7jSChbjLGvYsNRvcT7Xr6OTqjHFQS3DWA0swRCa9DhWMMDn6s4yn3rwIov1USw4DucyvD5kk/W4sb8nOqmak5jSyq0yvRBYQbiw1OPAJcAac5YqdroGtQRjleAdMiqmUP52UyR8z3hWcOksj6GN3RbboziIFrwfuBx4eYgmY8BXgYvNuQ+xE7vSyvl9ZwBfIFxYqjpInzJ4KkrZ6jHvSzqwo4NPIc6TIQs3OWwNCyaQ4k/Ax0s9fBOz2CaVgr2Ai4DlhIvZPgF8lgSMSKxKKzge9zg6PmST9UC3wb3RSVWf+as02/PolvvBvIQolHUiwsfwTNyOR89Ij90UeZ8v6J5FwGWEd9d+hwsz/io6qV5ILEormI8biLCO/wag3yDW2fVuJCsOc6pglcEhCEvAkSpjFIDveT4Xbe6zzXF2LngrbmL8mpBNrsUZmE3RSeWI9FYI9gTOBz5JuJ1StuF8q0GD0Shlq8f8IR1vLsRzQtXqJSFHFRkVgzHE8CyPyzZ2W2wu0rgQ5CWE28l8B7AauNTg6ajkikxpg7DKeuCVIQ4vA1cBnzbnK8XOhOSAH4nfOjWEeAyPT5UO5uo4kxNBsuezwDmEq0G+D1hmLunTdqJU2q8DHwhx6HqgzyDWWGWVg67U3rNHuRD4ePA4Tpuy7qaanAA2mOgb6bOfxNz/UpzLEGYn8383+GAUckSptHfT+M0uD+IC1j+MSoaGvDA5MIdsFUbvTk7g013qt1jjpoL3AFfQeCfzeyyi+uUolXYDcHiNfz0LfAlYabAzqv4bURzUMjyGEa+aYnIgacoCM3H1aIFP/rnbHourY0En8FGc21BrGc/9BkdE0XcSSvuqpEJYUSUHUoBvrn74sgSSE0uAP9b4V2RKm8QjcVvcHc77kg4sDmk4qOpfBjCNFBZcEc4+iJWjPvcWhxTnSo3Y72cSlvZggz9H1e94JiQHZpMtv3VyGBVEQXCbJ3pG+uw3UXYnl/r9U41/TStLGz2SFYd0mhkbgM+b2Ivpeq0TCZ4gBkfJ48bioL77ijXqSlqsdjLtLO38VXqdeQyb24DYZ6Yoa30quPqN4dm7uHTDcmtr0D+3tFNg3hVaUFylb3oeNwPHBl9Pm+ubAgVc3cTHdsxiY3FYZ7NWmfbnM39TD7pSexcHNdDhsVEe7wPsRUtdcgBMxkGIqxb8iTsWDurkpAWaLNl1D6rJAXEZZC45kDRtS07k7kFIXrFGXcU53IW4CmMuGb2OBKm6BydT4M6uIV2UqDQtksmbrb14FPi+waiEn7Q8GcUHPPO5qxJjLWw7yKTSbv6g7Sz12CfKHoeZz7/hNpsoJy1XhhDwGMY5I09y3NZeuyVpgVohuz7tOBYM6bhgg4w38Ly/lvNiKpirzd3RySXt2DgkCZ92Wsyyt/TabcBJxVU6RR5rTBTxMl0I027KQAHjO+azfKTPailZZsike1CPUr+t23c7i/HoFTzLTPd3zS04lMcNnji61GNnZl1hYZq4B7U4ZI0OKJT5NG5rJTFNniqhMLdQyIyHBCtKvfbdqLrKQ14hmb9Kc7u+rIZ7Uj18nv211Gs9BThyXKF5IvslxIwPPIWxYu/tLAmjsPNXadGhK7VfDLK1hUwqrefxTvlsKK7W4PxVmtvo2E29tmGk105FvA23dgmYfm5DsMVpBfGv5TEWlXrt8nsGrOHi0Jev1kFdg/qK53Hf2B68JS5Zp0omldaEEJ34nOcZmxcMqv/IAc1q1KbUZ+tL23kNcJbEE0wfxa0AmPipfF5Z6rNzHrnQHm/UYOHX9ZLisFbM8tnkGx8mY9GWTCot3u7tPDsw9jH44lP7s6k4pDOR6vvpA+aXeu2a0TILEZ9DjCqjLoOCH52Ju3yPk0t99q6t/baxcSNXslnZzgOIS4G9dtdpWHZ+xJlUWt+fsAet25vg5YhvFL/M7cVhndSo/aMX2bOlPhuoFDjMfP4DN1HLUnJCVk0OHMKxW7vtl80aLFytExYM8xtgLcY8Jtx7mzimKSaTSjvO0u7GwMOACq9B/Lo4pB8vWK1Gq0V5uNu2lvrt/YLjEbcFX6fX8roQ1k7gC7N3sbjUY19rtv/B/GEt7hrSf/niJuAYd5oa973GmKaVbIaB1GCAzV2T4O9wk7UrvQoXb+6zujv8BcmJE1OcnHBbJPl8v8Pjgod6rNSswfxVmut18DF8+gWgxiWb1mhMU0YmLa2FmEQZdBgUzOcjvjFSHNLyRavVcEvRFyQnxLMkPVmrJgfEjWYcU+qz05op7DFXqbM4rLM9jwflcwFuqXdniN5ynzZSWrAKgk7EvsBlYz73FYd0WqPJ2j0DNlrqsWG/g4XAGpy7EK+/6/ZiwMQIcPqWPjt5pNvubNasuEqnPL6TB/D5KmL/VorhKxlyDzKptGYtDrBTUc93L3pbWxzi1q5hndioSTU54RVYasbPgq/j8Hd9E09jrOj0eFXI5MDriqt1Ex4/kliABf59C2TJPciuTzsJb3P3BMR4rcQNxSH9txW4aOR8q7s95ebz7T7gXcGW9UO4rZ7avmAyKK00E1fvCrlbzKHDKlZ8LpPHP1IJtsKfrFy5pY0Wf+r+VwdgZrzbr3B/cUjDzdKY45MTuA0q2uUDuuQA/Mo8XlPqs3OaKWzxK5pTHNLKss8DgvcG++dOyQBZJfdpo6VNVkGi06BD8NHKbEaKw+phQPVvfpCc2NE59eSEgvedybjbE28p9drflrqt1vZCu6lOsjTmNu/DmDVVZd1Nbmkjps3+l0GHfPZDrCruz4Zm2wo9dq49U+qzgbLPompyokXllcklB7YczDGb++z6Zg2Kg1r2l+e4G5+vms8c2uza5cmFiIlkgAN/ULAQWFsc0i+7VuuoRk0eucC2lPrt/b7PCbA7OVH/MTs+OTDKojDJgQWrdGzXoG7AuM5g0WQmWaHIkKXN5kQswgHePVkTJ0rcURzU9wqdXLjpPBup12Zrv92KdGJxmFMlrjBjPgbjpou7kwPNzlXlkNWa31HhYnn8s6CMqKarIyG3tBFjcRR3GB3BBOc9lTIbikNauWi1au3DWhVKpV77rsQRgk9K7KDqt8JN5nNsqc9Oa6aw1c1HCj4b8TgLYShUcmBKVDJUMJNNS+vHmmDtBBBcMOZzTnFYA6VtXMmA1Uw4bO23HcBlrxjS1RXxPvO4vxTmHbjVzUfG+DzGfkBBcdq+DFnaTCptxUNezENs0CFjP8RgcX/OZ0gfbxT439Rrj+JeWd+UIAa8Bp/FeFgSNQ9WyJU2UhLL3jyvTAuBtV1Dut7z6N3Ubb+fzOm6BnW0D4MYb4Lg9U9JqU5uaaMlTMFMxBQABCdVxJ3FIX3bxMfCrnSdv0qHeMaAjA+Ne0VnovOLFIxpaDI5EWt3nHYKdATW970yNhWHtPKIy7VPvYNf9kXtVRzScs94wDzOwo1/5JOsMGTJPcik0qbQKnTi3qR+4c49eGD+sBZPPGDBsJbO6mREcAnGbMUQEZiuZFJpUxwILwhe1uFzyMR/eD5dBgekde/ccjl1hqAumVTatAfCVSNnJaV7rFP49KpLqgeyHuW0+19+DaWNJvnaNnKfNmKyaGmxlCttysd0PJlU2tTHFGtY2prfpYnc0kZL2h9lKrx4XL2Uj7VV0j2m40n1QNYj9ZOGWlY15e5BOUMFM5lU2rS7B6qhoErPHgq1SfmYjieTSpt296CQQUub9jEdTyaVtpx2q5DF6EHu00ZL2n3aWokEpXysYymsbxOpHsi6pN3SZjDkZR0pH9NxZFJp0+5/1UoueGnPiOXuQbSkPntTy39NuaUdzZU2WtLu09ZKJMgLFtKklNynjZi0uwc1rarSrLK5Txs5Y1l0D/KQV9vIpNKmPXpQK/ullPu0uaWNmNS7B17dgpnUym3l9Mo2kWwqbconDTXrDAyLdfONFvG8dI/peDKptF6F55KWoSH1/Nf0rm1DYlfSMoQlk0q7uc82y2cN7nE7lrQ8E6kZ8gLPUqay5sbOB74Y7IiTCTKptABb+u18PJYKfhF8le7HW7qiB26DEOOGgsfRpV77WMLytEQqlzOHJdg5+x3FQS3D48uIw7Fk9sLajWoXxwg8S3oiZru3OdkE9I302LWJyjNJMmtpx1Pqs/Wlbbwa4yOIbYm+79YLNgidiE+i3oGgbOJJjL7SPF5Z6s2mwsI0UVoABqxc6rGv7eiky8QlwC5Lwt8V1LT0ybkHY7ixuKLTo6vUY8PNdh9PO9NHaQOq70OoeCxCfANDivPldUZNBfXiT+OWA3fgh4UOjij12oqN3fZUrBJExLRT2ioPd9vWkT77MHCcwc0AKIbJmlBNn9bDs3hCXlUrelP11aRhtsvPEpmeiIWh1GN3AG8sDmqZ4EoTi6i9IKZteHUKZtxrGCLCvZPBB0aAFWHe9JhVkrC0cxLok1KfrX/pnizF4yPy2EZELoOc8sTq0woqBk9i9Je2c0TMChv7/UxCaW8TDAheEnfHd5xjY6Ue+1rB51DgCsQobVZeszovQY2gYMaMMUHZ4MrCrmCSVeddEO1G0Cnooep6xUiUSltv5r4XcDFwt+A9EfZfl819tr3UayvKPotM/GcwYWnbzVaNghmBV//d5y1Txm0t/SOvwOGlXut5aIU92bazNyG4b/fi3ilR740/kUVuolTa25r8/zDgB4LrBEsjlKMuj1xgW0b67AyJ4ymEeHldWGpYWs+mHj1QVTbxOzNOGum1Uxu9jLrdCJYKrgN+gLt/jWh2/ydNlEr7SeC+EMctA+4UrBHMjVCeumzptdtK3XYiPu82sQVNqWJXtXaYCXzayZ3VtfI9YwQ4vdRnx4302E2TlrD17ucK1gB34u5XM+7D3f9IiO4NgPAwcAywAnimyeEdwLnARsFywayo5GpEqd/WHbgni/H4CMZ2JuHvCtq93KZsxlPAJzqNJXFOsuRedn02TgnPpXm0aQdwOfC64P5HQqQTMYPnzF3EEuCbNLc0c4CVwB8E74xStnpUJ2vM4lA8rsD5Zq35Z7X28jLMWvBpJcqCMh5fMdFV6rXLN3ZbbOWDgrcCvwWuAg4K0eRa4EiDFQZPRylbLNEDg60GZwKvB24J0eQI4MeBv/uqaKWrTemjtq3UbSsKHSw2sTZ0Zk11t/UMN9ZuQigzfmjiiFK39Wzus+2tST95BIsEa4GfA68O0eRO4M0Gp5grxImcWENe5hT2ROAsIEz95jLgd4JhwX6RCleHTefZyEifneGL1wN3BF/XnayZV8enbVIwo+rKtwJ/wHhTqddOLfXZQ1MSvgUEewkGgLuA00I0+SvQi8s4/ipK2SYSe5zWwDe4BlgEfAaaVsx3At3Ag4IeBS+ei5utvXbLlh5eD5wu8TB1FNfqFMyoUfRA+Bh/xjirdD7HlnrshvZJ3hg5kc8ENuJCkc3i52PAauAwg2FLoKIusdoDg2fM/bJfDYSZXByAiwveKnhjlLLVJXjT+L5PsgijH3hGE+O7dQpmaimywRjiaYxP7GEcWuq1a7D4KhgFxwE3At8AXh6iyXrgKIMeg9jiwhNJvGDG4AGD03GuwN0hmhwN/EqwTu4dtbFzz4CNlnpseNTjUApcFdTvjoFL49baNdGzF6iym2QZa3yxMIFJ1iFyT7tbcPOMZtyP81nfZnBPtNI1J3GlrWLO8T8KOAd4PESTdwH3CFYK9o5UuDr8udse29Jt5xUKLDX4WfB1Z4N62lm4OO46PF450mP9W/vtibjkFcwWLMdls94PTVPL23Ehy1ebiw7k1CMIZg/LWSSF+GwVnKnmNyFSuob1luKQ7iwO6/yJ/ysOaXlxSLcWB/WGJGQTnCLYFHI8K4JrBC9NQtZMI1gi+EnIgZbgFsEJScvNgF78BKv1XQwIjhL8soUx/D/B3yQh67QisBIPhhx0P7ASYSYW0xbBAS0+rUpBFCGnXQhmBSGvJ0PehGfkSiD3SFr2OFFQMijYHnKcnlVCpaIzBsHBws3YQ96UBxQuWJ55BMvkJqdhXYFrBcWk5Z4xCI4V3NDCDVqvcGnJzCE4PFDAsGNR/XwnadlnHHLZnNMEIyFv0lhgpcMUgKQewRy5kN+uSShs1f9PJJox4xHsGfhlO0LerL8Gfl8mF3YKPLkQ36MtKGe9/92uFMXrZxyCBXKRg0Y3afznXsE7kpa7FQRvEfy+BWu6TvDRJsd8KOnrmvEITparDmvlxjZbPpIo436QYa/pj4K3j2v/vw2OfVQJVdHljGMSj9BRubhmvYV6iaCgZHASrk9hwnmOlPPp67W7PKlrzJmAYH+5ycrOkDf9EcHZSft5mvwk88AG5/xqg/a7BIfHeY05TZALC61r4fF6u+CkhGQ9VnBjC7KuV4gVzXI1HY83OM8P47i+nBaRC8DfHVIZfMFaQVdMss1Ta4mT+9Vi4kTQ2+Scb29+lpzY0eRTnbMjkqeaon4qpDxPa5IparkVto1+tH+UWy2Sk0bUelHJFrW5BFKuGOihkP1XSwZfNsU+lzXp50WllTkpQ62X710veO0U+1wi+GkLfd4sOL6N19wo7fuEGkzoclJEHFZPrRe4t926B3IsUuOIypp29pcTIQqWpCi8f7ktOL6hfynnR58teCzkeZ9VxEuJBFc06L+saVpgNG2Rm8m3khKuO5NXaxELyYXmumK4xn0Ff2ogx8+jliEnAgTHCW5qQeGuExwZtF2s1mLDdyjm2HBg/RvJ9PdxypPTJuRSwh+Qy5aFUb7RQFlHQx7/SHD+2LNwgoLcrpX1ZNuoGbb6Y1oh2EetpYSbfXYG59sn4et6cxM5lycpX04bUOsVV/X81tRUlsll/urJ+pTg4KRlzGkDchOsu1pU1rsUbmPiWBEsFDzXQO6vJy1jTpvQ8yWQf2mirE8o5aslBJ+rI/smwT8kLV9Om1H99VqZWZcmt2xpfClkpDUXOSlBrtj6W3Kljd9SEP7KCoIzxvncXUnLk5PTFLni82OSliMnJycnJycnJycnJycnJycnJycnJye9/D+enQ/Zl922AAAAAABJRU5ErkJggg==;opacity=30;" parent="1" vertex="1">
          <mxGeometry x="682.48" y="204" width="37.52" height="36" as="geometry" />
        </mxCell>
        <mxCell id="flrzGgmSRXtZ798kDypF-5" value="" style="curved=1;endArrow=classic;html=1;strokeColor=#FF0000;flowAnimation=1;" parent="1" edge="1">
          <mxGeometry width="50" height="50" relative="1" as="geometry">
            <mxPoint x="460" y="180" as="sourcePoint" />
            <mxPoint x="650" y="20" as="targetPoint" />
            <Array as="points">
              <mxPoint x="650" y="140" />
            </Array>
          </mxGeometry>
        </mxCell>
        <mxCell id="NDOgM_JSvhHd9fuMqUDp-17" value="infects a vulnerable target &lt;br&gt;with malicious code" style="text;html=1;align=center;verticalAlign=middle;resizable=0;points=[];autosize=1;strokeColor=none;fillColor=none;fontColor=#FF0000;" parent="1" vertex="1">
          <mxGeometry x="510" y="180" width="150" height="30" as="geometry" />
        </mxCell>
        <mxCell id="wqi3Ne-OvxT0ib12nYfs-7" value="" style="group" parent="1" vertex="1" connectable="0">
          <mxGeometry x="140" y="-60.00000000000006" width="81" height="123.47000000000001" as="geometry" />
        </mxCell>
        <mxCell id="wqi3Ne-OvxT0ib12nYfs-5" value="" style="shape=image;verticalLabelPosition=bottom;labelBackgroundColor=default;verticalAlign=top;aspect=fixed;imageAspect=0;image=data:image/png,iVBORw0KGgoAAAANSUhEUgAAAIAAAACACAYAAADDPmHLAAAebElEQVR4Xu1dB1hT1xc/L5MRRthThnugqKhVa91aHK2WAu5dd1u3KA7cW1utUrWOVqvi3tbRutpa9wK1IiBT9ggJGSR5//uShmXGCyThhb/n+/qVz9x77jnn/t4d5557DwZ1knAMAMPrpGoGVgoZqm5Rn1+eWl8Z1UpQt7QynjZ1DgDGM1Xd5PwBAHWzX0lr9QEApE1VNwt+AEDd7FfSWn0AAGlT1c2CHwBQN/uVtFYfAEDaVHWz4AcA1M1+Ja3VBwCQNlXdLPgBAHWzX0lr9QEApE1VNwt+AEDd7FfSWn0AAGlT1c2C/5cACL2Q5CYVM0utcSlLygA3nAYKO8hlmIjJlAkO9fNLAez/4zj5/wIAwy/G20oys4Nk+Rl95YXZn0sLcxrjIgHgUjGAWARAZwAw2UBjWwGNwwW6vfNLmoP7dpaL5w3MgpNxaIBPQd38/lHURF1ULPQoTqcxXreQxD8aV5ryYrg09bWjvISnt6oYjQ4MV19gejW6yWwYtJTv5vzPpX4NEWrqDtUpAKCOZ+FFtwaInt9aWfrmUVNcgr5uAxLdzUdk0aTjZkajT7YdC/PLNCDrWmNVZwAQvu/Pj/h3L+0tTXjcFHDjRoNh1na4Zeue30OrXstOD/YrrLXeM0DDZg+AESdeuPPuXt4tenS1P4BxO76qvWm2jrmc3sNDj08JvmGAvqgVFmYNgC+irwwWXv35Jxkv36FWrIcaxVHwqWVg9x/teo+ce6Cvm9nFIpolAIhFnvTNwbUlN2Pm4DJZbfV9pXbp7r7P7PpNHXBkaEAqJQQiKYTZAYDofMmDLfuEj66OJKmjyYrR7RzTbD/7umfM6A6vTdZoDRsyLwDgOPZZxHc/iR5eGVdDvY1WnWZtl2kdPqf7iWFBr4zWiAEZmxUABq/YHym4GbPSgPobhRWd65bJCZ3T5VhY8zdGacCATM0GAF9uu9SNd2bb72jZRTOg/kZjxfINiLPs83W7Y2HeQqM1YgDGZgGA0KNxDYoPrbwn5xdyDaCzyVhYdRuy+fSi0bNN1mA1GqI+ANC8P2Da4ruS1w/bVUO/Wq2CofMFzpDINidGt3tcq4JoaZzyAAjZeW1Q8bFNpyrq4OTAgdx8PuVsyrGygFKpFMQSaZlszIZtEy7sWNGQqqeLlAbAmOtJFtk/f/dSmvbaV2XR1s19YcXcUPjl+G04ev4fyoDAw5ULy2aHQGp6HqzYehp5o//zSmIY2ITN73/iq64XKSNsBUEoDYCQbb99W3zm++9U8lpZsmDvxsnAtbNS/NPte68g+sA1yCuovdEA9S8M6NkGxoV3A0I+gjbuvABXbz8vMzNaEKYG7V7nG4VhcqqBgLIAiMJx2v2pi1JK4x95qow2fkg3CBvwUSUbCkrEEHPuDpy79ghKhBKT2rdtgB+M+rILNKnvUaldApDj5uwEkbhU+e8YDezGrupybFjgnyYVkERjlAVA+JEXbQr3RzzEpUojWlux4det08DSQvmVVSW+QAyXbjyGa7dj4W1aLgnVq1eE+Mo/btcYPuvTFhr6umlksn3/FTiLQKki606D7p9aPql99Vo1Xi3KAmDwyp83CG4cmaNS/bPebWDa6D6kLJGQnAX3nryBJ3Ep8CI+HSSl5YsyUgyqFPJ040IgWnu0Qf+1C6wPbBaKINJByWk5MDFiT1kphqMH2A2LdDv8uX+Wrrqm/J2aACC2fpMX8iQJTzgqY2xaPBxaNPbW2zZSqQxS3+VBUkoOpGXmo91DMRQUCoDHLwGZTA78EhHqUCYwGXSwtGSDoz0HuPbW4O7CBR9PJ/Cr5wy2HEu92yUqTIr4qdJoxB2zpm/MiMAr1WJmpEqUBMCw88ncvN3z8nGBMozLzsYSjmz/Bmg0SoqrsWv2Hb0BR86W71RsPh136cSc0H5G6stqsaWkRUN+vt+6+MCSsgm0Y5uGEDUrpFoK1male08TYPGGY2UiWLTqDg4DQi33d/czbKxaDZSkJAC+WB+zkH9l/yqVXsMHd4JRIZ/UQM3aqZpfyIeh038oXwe4+wF36Ey7X/s11D9C1UgqUBIAgxZHPyq5c7a1SuclM76AzkGNjGQC47IdMm0rFBSVKBqhcezBYcJaByqFmVMOAETAh/CftSLJs1tlS+1fvpsCrk52xu0pI3GPXH8UHjxLVHJH/gDrKTudTn3hlWek5vRmSzkADDqVZC+9tLNAkvhUoQyx5TqzZzZypVNOVFLG3vnr73Dy0v2ysnYTV7kcC2uTQ6qyCQpRzqqDT6Y5ik+vzZVmJCjUJ758YgQwVzp6/g7sOXKzTHzrUYtcT43qnE0VfSgHgKHnMpyKjq3OUQGgcX132LpsNFXspbccl28+g827y8+BHMOXuh3+6iPKOIMoBwDFCHBmfa40PV5h7A6tG8Dy2V/qbXiqVLj7+A0s2XS8fAoYvsz92Nj2lLlVRDkAhP6W6iA4siFPmqYEQJ8uLWH2JEr5TvTC1quEDPh26S8fAEDWaqEX452FJ6KzJckvFVUG9moD08eQOwMg24YpyyWlZsPkBXs/AICs0YkpQH5zX64w7m9FlUF9g2DKyF5kq1OuXEp6Lnw1/yeFXMROxnnyDo+DIb7vqCIo5aaAiQ9wZtaJH8TC+xcVsoX0awcTh/Wkir30liMNHUSNn7tbUc+CwwHbkRs+AECrFdFJ4JdrDhby/jhkS5QL7d8BJgztrrfhqVIhHZ1AjpuzSyGOg4cn4KELA2MG+iudHBQgyo0Asy696Nez5PcL30crt05fBLeDScPNdwQgjqIn/DcCBAT4Q1Bo+N+Xxd49qXIgRCkAjDz7ym9dw9g4Wkmx5aj5RxUA6N8zEL4Z+ykFvpXqifDmbSZMW7RfUbkfsZ4Z3Bz2pfnuntzto4nV42jYWtQBABr69/719+/D3VIV4/3IBSehsKAYen7cHOZNHmhYrU3ILe51GsxaflDR4oxJn0LP1q6QV8oUj09qaUeF52YoAwBi+zffIz47gKM8KY2M/huePY2HTugUcCk6DTRXevg8CRaui1GI/9OaIeDKZSv+Xhwf0Gt9cHN01a12iTIAGHIqyXd94ydJrizlG0w7z7+B8+f/QmFgXrBp8YjatVINWv/jrzhYF30OXJxsYc/KwWWctrxtuD6iV9v5NWBtkKqUAUDouVTPLQ0epDkzlQC4/UYIO3acBXs7S9izYZJBlK0NJqcuP4CdB3+Hfr3bwuQvmpeJsDWl/s65PdpNrg2ZKrZJGQAQx8Ar/OMKGlkrL3kUSFlgy7aB63deQL8egbVtp2q3/zg2CextrYFmbw/utPIwgJUJTYeu6NvqSLUZG6giZQDQ7TrOmGt5Q9jLKUsRCCJHuR9ZHDcwszhQjd3yJl8I9VjKB8UI3aa8Cmy6f2DjWn9EgjIAIAyz/ebdmAmeSWEqK+ZjruBmbRbPAej8HlPyi8CNpQwNSxdbwreJ7azPDfRQ/kMtEqUAMPHCy4DNjZ49Y/73TG+SxAkaOzBr0TyGahoHQXE2MP+7Gngq2/3xkI6ftKXCjWFKAYAw961HlxM72Bb4EX+/FdlCIydrQ/VCrfEpkciAIVEGARF3hue9CuyxdUCT67UmUIWGKQeAZdcejY/wfa04PuPJGOBk50wFO9VIhqRCCXgylAvAR8W26Zvjg/2PhWGmvcmqQQPKAYBYDEbZXH3a0T6/GSFzEd0NnC0pJ6ZegHibzwMPlgAkchosTGzeYdunze/pxcCIhSlp2SnnX7ZdVj/2lh1TZpUgcYSmDupvBBvRLgZkjeZ/Hpr/aXKIyfI8MKpzl1EGZF5jVpQEAKHV4ivPus7weX26UMq293dUnAybJeWWlIKtPBeu5Tnd3p/cuC/VXg2jLACI3p5y/rV/T8d3x/t601pzGJR7XIMUIP/OAuGdPKvI81jQthvdsZrdUyfVon6FKA0AQhUiSHSqR+arbi4lZrkaXBjrMnBNr6bn9esW05WmPAAIU6y5Hjc9omnuNtOZxTAtZYroMPehF6VCwKpqZhYAII6KtzXLzna1oNwIqhUpv6bYXBrRrnV/Kjh8NAlqFgAghI+5//hKmDevt2G+TeNzkSF//9dPvFpFB/s/M35r1W/BbAAw6bd/W21vmfmEbiZHA3fyrTK2xAbVQw4faiQ00IARswEAenkRuxl77/4nzqK21ce76WoujXMNW96zSfnzIKZrWq+WzAcASK1Zl9902tgy4y+q53SMK2Lxlz31QtfAqf1SOIEUswIAMQrce3kvtp2DSOEmpiqt/tdxemTXFtupKl9FucwLAEjymVfiu24IeHeDTtHMri+LWG+XPvVqZg5fv/mNAITEaBS4Hnv/XjdnYRDVvjDiqHfJC+f+K3s0o+TD0OrsZXYjAKHElEuJLTe3TH9iQZdTSv4/cy3jtr5o14rqK3+zngJUwh+893TL8HqFM6gyCvClNJj33JPy+/6q9qLUF6RPZ4YezeasC0qI97OSaH6xWR+GNSy7O4G7f2LnlmNryMbk1c0WAISlIq697rW8WeZVJs20KWOr9tLjAnbWpiTHRlR6AJIskswaAKFXE+zWuP9bWL8W4wZFUjnMf+KMYvxaUCLGj2zHq8qZNwDQIdFqr9hsd2s6WFub/iFJIi1MZvpbWJHZqX70gEb/vQapbxfUbnmzBgDxqvhKvyf5bEEOOLp4AttCmUrGVJSTnQZ8XhFszuvh+cPnTTJM1a4h2zFrABDXydA9ggKuvAh4AhF4ePkBg2Ga+MH8vEwoKlBG+m7h9XbZ1q8hZV7/1AcgZg0AYg2wziO20JMthKycIsVbvG6evsBkGhcEFTufMPb64u5+PwY3fauP4alS1qwBEH7w6UeLGv97pxFXDgKhGAqLBEBnMMHdsx4CgYXBbUzM+Xk576CYV1CJ9+qEJpG05t037ArC/ssSZfCmjcbQLAEQfDGebRn75Fve32dXR07pTu9UXzn356IXRcQoUxeNRgcnV3eDLgxlKHlVdlY6iISC9zpj0oa/gOUfeNfu48+HHQoxr8Wg2QGAyCbCv3n8kPRdQhOiJ1YsmgpBHjzAZSKQymSQk8cDuVzpF7C1dwCug4sCEDUhAb9I8eXLEP9KRLz7598RBo0jclvggFnZltq2D55H9/tym7m4g80GAKFHE+zEL66v5N+/Og2Ty8rkjlo0Czq3bwXSzL8AF+ejtK2likSSqsydxJTg4OgKHA7aJuqprVgshPzcLLVfPY3OBLemfQBnu8KALyq/YMKs1/SpXaeQsJjRga9rAjxT1NXTJKYQqXIbRALJ2Og/Qopun4iWF2Y7VpVg4bxvoEe3LugDlII0+z7I+SkgFElQlg5BefpWVImBFoa2tlyw5tgq/tZEMpT7VygsBl5hAZpO1Gd+Z1pywb15P6CzbVEGsiIIHTbhPXY4nYnbBPX6wTqo11IqZQipKiilAfDZmVc2suunT4peP+yFelNtn82YNgEG9O9b9puclwDS3Ieo8yRA5OxRTQcVKxMAYLMtgE6nK6YHuVymGN4lYjGUliqfqNFE1g4+4NyoF2B0JYjeZWbByHHTNZZnuHhlWX0S0vfU+C6UeRyyorCUBcDgk29c4N6FM7yntyvniq1i6gmjh8KQ8MqviMlLMkGadQdkpSIo4AkUC0NDkLNPG+B4Eck/y82WkPgWJk2fq5W9hbN7pt2AycGHQps9pVqIOOUAEHo0zs0q6995rNQXE/JSk2yK0BCrjUIGBcOUiePeH4JL+WhdcBtwCU+Rw7eYL6xWBlHigWcrK0tw8O8CDFv/99p58OgpRCxaqVVGFosF9RrUB4lrw5tC74CFTYYE/kOVRNKUAUD4kSeNrNJfRjEzXqBA6lLFsj0jNQNKSrS/otK9a0eInD9LfQfIS9G64C7IBemK30tRFtES5C+QSKRawUCn0YCFchVZsFlgic4YWB5dAGNz1bZx7Y9bsHaj9ktLRLoj/4YN0MdPsMCglOuZKvZsFkXzbhZzoK/b+/tKQwxXJHnUKgCIDGEsyYOP2KnPljCyE/pgeOULoMmJyWhO1j58twpoCpvWLdeqrqzwFcjyiPsZ5esIYpcgk8sV6WNVREMdT3S+KkMpZuEEDLdOaL7XnDr26PGTsGvvYZ3m9vH3Qc6pys/dyDiOJRLPFiuk3s121tZCsVYAMPBchpVt5r8DLdKerGUUZfmqs54cdVDia2XiKG3k4+0Je3Z+p6sYyEsy0LoApXFFowIZoqHhnuGEriAg97I2iv5xN5w4qzsdsIenO1hx1D93I2dZyqUezQ4KfVosPTLYtC5lkwJgJFrY0dKfz2amxc6giwVaHfYStIpPeZuis6+49nZw7JAyIYMuwkuLQfoOrQvQ/zUSGqfpDi2Bbq/wM+mklavXwY0/H+gs5+TiBPZce63l0NYRpO6NLwm8AubFhLeMM8WC0fgAQFG8w4+9aMpMj4tgpseOoEklpNrk8wXorF13Yg0mgwGXzuoegsssL5egxeEdkAvV5G2is4Hh2hFolq46O1RVYMbsCIh9qXukskNAdXYle8MdA4mDd1xpveYLxVafXDCmV5FUZ5C2RoWCxFs/Xmn3e7FSny9i5CR0rjq/6+JZkF+A3K/kEmyeitkHNjZlmeZ1sUa/o/kfrQmItYGKMJYdmu8/BoypDx+AYaMmQXZuvs42iZ2EB5qu9CUpxylZ4t3iu2KXxvtPD/ZTvjRpQDI4ANDCjsXi3RjKTo9bwSxI866urNmZ2cArIpdj+cdt66FBfT+9m5Lzk9Eu4QH64l3Ql4/cDTT93yQM/nwoWqjqvrbOQCOVb31fvWVUVUDrBAlaJxwR+gUsOGLA4BODAmDUjsvBrJSHB+gi3nsuW301T0tJQz54clnWFy+YBV27dNS3CeKSCRQc+wk4nwQD081L7/rFxXwYHE4+ENi/oT/aYdTsejOOzjZK3Rov3zdnxFK9BVZTwWAAGHXypaPFn78mYnKpQV50SnyTBPKqp28aNB6LvIHDq3gDdRoH8c6NXgeyv/5Ax4Z2wJ23Glj1G+usVrFAPJJxyjfzSNfx9vFGYWvKfAE1JUFAn/CD43so06rUgAwGgDFbTy9kJ/5DnIvWmIj9eVI8+RjLPr26w7xZU0m3KxcJIXfjYsDjnpTXQWcDNl9HglVb8iPJzdt3YMWazaTbdfNwA45eaxXNrKUOXknei6c1qKlH0SAAIFK9yY+vTaGLigxySUMkEkFachppwzZv1gS+37iCVHlpUSHkr18AeKIyM2klojPAasJMsOlWfrikjenBQ8dh/0FlNhAy5OjkCFxH9R5FMvUrlUHbVX6HsPa/DmldnppcbyZ6n5Crb2H4nhvBnOe/GexCJI9XDNnvyOdXdnZ2gsM/R+tUX/IuDQrWLgDEXHNZZFh2yCiwDxmpk9+aDdvg9+u3dJZTFbCxtQFXd/JbTF2MxV4t/9g/p2ZJFQ0yAoxdGX2HlZus9dROlzIVf5cj96wMHdFqI2EJGsazc9FRrhxYyMV68cwhreXF8S+hcEMkoIA+UqIwevYHx/HfavUETp+5EF79qxxJ7Lhon4+A+J/Dn1QbNS0kZ7DwwvbhTsfCmuveh2porMYAGH7wqRfnYUwqVPHj11Q5TfUJHz7hI8ivsvc+e/wXxamdOpJIUGzA1fOAHUYJHGW6t2wED7xJAFhNWwi2TpqdN+EjJ0FeXrntiVM/Yp5noUMkU5Dc2qFIZO/meWDuqGofKNUYABOjdjqBOD8FExZpPjExkDWI/XZWBgrRQou4qhSNfAEN1fgChEIhFBUVKaOD4uOAtm8rgEj7CSMe1Anw8K8AhRiDpaUl2KN0L+oo+DPkA0ARRBWJhqYQB2dHnW7fmppEZmVfImX5198fFVajVPQ1BgChyPjNBxrQc9JjMWGhYfY4aqxDOIVUQ746482f8w307oFCwyqQQCAAHq/KkJ+RAtiuDYDx1DvV5F3QS3SDUIxfhUMgNpsNXC5XkfxZRcV85AMI0+wD4NhYI9eviyLqyNAkt7AtxV39W/00c4gyxXoNyCAAINofs/1CICP96V16Cc+g4x8xx+dk5aCpW8sBDmo/ZPBAmPJV+UPcRMcTAFBLedlA27T4vZEA79oX8M/Vp6gjjnIdHBzKHDlPnsXBnIgoraYnOt/V3QWsrA2X9ELO5pSCe9POu2eE1Gj1rxLcYAAgGE5cva8J8DIeYaJig0wHxHaQGPJ1xQQQbbcObAkbVqO9PRrqCwsL0TSh3YtIW4hS0VWZCvBR0wEP7KCxU4kOJUBAuHVjTpyB3XuUGUF1EbFAdEILxIojiK466n7HLe2EUjuvjnsjRhosvtCgACCEHh510MtKmvmUxs91qI6Sqjr5aHFVdaGnjZ8LMvDBfduhoKAARfzoSMaB1hC0he+n7pV/Pgyga7BWsQlXLgGC9Vui4fqN26RVJDyAnl4eQKvmlCCzcS5gcJ0Cfpw1WhneZCAyOAAIuaZGbeeIMfw5oyDNt7pyZmZkAh/52skSHX2VB/dsBWmVRZna+plpQEPOoKqEd+sHOFrY6SLiS16wZA2kppG/EMxEO4N6yBVcnVFAaueeQfdwb7ZrUpj2AEldgqv53SgAULYTRRu32usWEx0Fawrp1iavFIWCJSelVIrt16XfupWR4EHC0YK9eqZYCL4HgDYdAB+hOcS7Yvmvps3TOc1ULK8tIkijXghoUsd6/3hLm3SJiupObv+qy0hVfjciAJQtjV29axkzN3UxJi/Vu63cnFwozCd/BD5u9BDo/kkn3Sa4cx1ox/a+DwD/RoBPR4tDHSRG9wcIAKhuH+kqb4n8E556xgLI6Qxc7tRg9Z4FYxbp4l+T3/XulOo0Nn7z0faQn3KVwc/V66SQOBQiAkPJngr26PYxjB1ZlndS84d16QRgV0+//7ujC8gjN+lU8fmLV7B+0w6d5VQFvHy9UYQx+R2yzJoroHO9+u2cM5y8n5m0NJULmgQARJNfb73IFhSnXWbmJHWtGJ2rS+4CNALkoZGADDVp3BAi532tsyh2ZCdg9/58vxxaR8jXoZGhwn5fHbNT5y7DydMXdLZDFLC1swUXNxdSZRUh4471HjNktI93RU0ySVZRkwFAZYGx6w5MZxSkbqSJeOQ+CbStI9YCZLaCjk4O8N26KJ3GpkWvQV7BF2rLyVegL9vaRiuP76P3wYMHj3W3g4BUD4WDE9tGXSS3shNJHf1m7Js9ZKeusob83eQAIIQfE7XPAmPjh5i5iYMwmVSnDIQTKIvE6SDhi98TvVGnfbDVcwBDt37VET57FeDogQltFBm1DlJSde/GHNDRrwM6AtZKGB1KnXxuWpSWDtgRNY38tkenluQK6DQ+OTbVKzV+3c/tMUHeCTovW2c8VloyepxBzRlA1Zajv1+DroJr8byhEYUWgW7zlqr3FeATZgHerLVWhSZ/uwAEKGpZG9EZdPDx89EaAiazdc3CrbhheyLGGH2u1yRrrQJAJdSETTHT8OLM5YyiTAdNW0YiPpCIE9RF30wdD+3attJcjM8D2pJpGn+XfzkGoFNPjb9L0fWycZMRSDTcVlZVJELAiVBwdYRuBBVLuZ5L9s8epvtGiy6Fa/g7JQCg0mHM1sNjaIUFq5gFqR7qgPAO3RPQ9eX1C+4FQ7/8TKNZsLS3gG3WvNXDew8CPDhEY/3EpGRYulL7ToHFYoK3b733nD44x0lQaue2at/cEWgRQg2iFABUJll/+PJMGi9reUpCAkcsKb+vX4pe/0h5m6zVrxTQohnMmzlZMwCePwBs3/eaR4AO6EQx/H03sarCxcvX4fDRU1p7z93TAz1EoXy3iLhr6OHjK2Y4e/waMWzAeGp0e7kUlASASrwDd+O6CNNSo3OTE5ulpKZixLBLnAxquzLu4uIMm9Zo/sKx25cBO6X5EAdv3ALwSfM19tOOXQfgzl3NB3Eqp4+VlRW4+PilM7leM+aEdT9OtY5XyUNpAKiE3ImCTiUZN9fJC3JGZSUnOd6/9wA5h9SnkiWObff+qHmIxs4dAey6lj28myfI563V2F+Llm+A5ORUtb/TUEqzNh91ENh7+x8XixhToyYNNMlevibgMgsAVFTw3IMMq3/uXN+a/eZFaHZGui0fBWZUpe1bVqH3gNTv5bEDPwD2+K5Gm+GWVoCv0rwVn/xNBIozKO9X4qkZZ3eXEq57vSsWTs7j1k4dXvkRwZr0jgnqmh0AqtpkUfThbvzszCh+YW6bwuwcDq+oCJsx/SsIbKk+rxS2dRlgb99oNa18zW5ANzjeK8MXS/HIJatxjr2t0NbB5TnDhrt805zxl0zQT0ZrwuwBoM4y0X/Ednbg2na0wLCmFkzwtaBhLmwGbmNBp1k4/RjFpudkYkQQK0ZcPaNhIGdb4shdB3L0eBRuYSnPGjaTz+dwi8QyLEcgg0TU7y8Ax/4eGuSteegwWhcZl/H/AFEQgxeOpM8EAAAAAElFTkSuQmCC;" parent="wqi3Ne-OvxT0ib12nYfs-7" vertex="1">
          <mxGeometry width="77.47" height="77.47" as="geometry" />
        </mxCell>
        <mxCell id="S7Pj0Hxyggmf_PGtkzB7-1" value="" style="shape=image;verticalLabelPosition=bottom;labelBackgroundColor=default;verticalAlign=top;aspect=fixed;imageAspect=0;image=data:image/png,iVBORw0KGgoAAAANSUhEUgAAAE8AAABsCAYAAAArDO8eAAAACXBIWXMAAA7DAAAOwwHHb6hkAAAAGXRFWHRTb2Z0d2FyZQB3d3cuaW5rc2NhcGUub3Jnm+48GgAADl5JREFUeJztnXuQHMV9xz+/nt3b0wmJVfRA4IiHAEsCoogArtgmicwjoBBuZ09enIoNJXBFMRhDglOGVDBRCuJUXCHBcYhTgB3FhgrxWpo5CSwig4EEgk0qjsAm0WGZl8FwnCzp9Djd3u72L3/MnFitdvdub2f2ENlP1dXtznT/uue73TPT3b/uFiLAdV2Nwk4ziMhfep53S7vTrcRMZ+KtoKo3u6779+vWrZu2a2hLwiKyErg9BtPXbtu2bf3KlSsTMdiekLaINzo6+r10Ov0FVX0rBvNXptPp/KpVq1Ix2G5I1OJdGf4dRk9Pzynr168fFZH7Ik5vHDeVSj2Uy+WOicl+TaISrwigqsk9e/Y8CBQqT5ZKpZsACoXCHap6C7AF+BEwBOwG9keQh4vGxsYe6e3tnRWBrUkhURhxXXc3kAY2+L7/Udd1nwY+VBlGVe81xtzqed7bE9nL5XLHjIyMJFOp1Exr7TwRWQicCqxQ1SuA2Q2iP5VMJlfl8/kofpCGRCXey8DJwJu+75/Q29t7rjHmEWBuVdAx4N9E5N9VdbuqvmqMGTXG7CsWiwdSqdRoPp8fhncE7OnpSY2Ojs51HGe+iCwHPqmqyyfI0hOFQuHSLVu2FCYI1xJRibcZ+G0Inqye5z2ZyWQWicgtwCdoXFLi4n7f968CYnsHdaIwsmTJkhNF5KLw6xXLli2z6XT6uw8++OCmhQsX/lUqlfq2iDynqjtEZAjYAxwALEFpBEhGkZcKli9ZsuTgwMDA0xHbPUQkJS+bzS5Q1VeAGRWHXwXuBL7t+/5PmrGXy+VmjIyMdAN0d3fPKZfLc1T1OBE5i+BpftYkTRWNMb+6cePGHzST/mSJRDwA13U/CdR7FfkZsF1VXzTGvGqtHTTGDKnq2+Vy+UBXV9fB0dHR3dWRjDGzEonETGCutfZ0ETmTQLwFFcEUeADYAfwW8IEqM4/5vn8RMRCZeACu614PfJHDS2Cc7Aeu9X3//vEDvb29HzHG3ApcEB466Pt+TxyJRyoeQG9v73GO42RV9VzgBCCtqnOAtIhUtgJ6gHqtgspSaIFhYI+IDKvqbuAFEdmmqt/1fX9PLpebUSgUznQc52XP834OkMlkPiQi14rIbM/zMlFfJ8QgXpsR13U/TnBvXUBQhb8D3OX7/pbYE4/SWG9v7wkiciWAiBSAkfDUQREZBVDV/apaDMPsBcoA1lqbTCaH65juKpfLMwFHRBao6mnA6cBFwPvrxHlKVa/r7+//YSQXV4NIxVu9evXScrn8v1HabJEC8Gnf978ah/FIOwbGxsZ2RmkvAlLAfZlM5pI4jEcq3jnnnLOLsBq+mxCRS+OwG6l469ats8CuKG1GRCx9fXF0hg7FYLMlVHU/QDabPT9Ku3F0Xw8RVN0dwE+BXaq6S0R2q+owgIiUgH3jEVR1vzGmCGCtPexcyAxjTHdF+JlA1/h3ETnGWpsUkZmq+gsiMgeYB5wB/KKIvBzG+yPgqaguNHLxRORVVR0Ebl6wYMEb99xzTzHqNCZi7dq1yZ07d56gqleo6heBF8NTT0SZTuQvydls9jZV/bOKQ/sIeo3X+b6/NZPJLDLG3AFcqKrHi8ibqvqA7/s3N7Lruu7ngY+r6kkQ/EgE3U53APT19Z1nrb0FOJ+qtm8ymZyXz+cjvxfHUW2re1BmAR8ENuVyuZPHxsZWqOoHCarVqKoOj1dnghbDLcAfht/z5XL5Tzdv3rxTRKy1VkVkvH/OqqoFyGazv2OtvZ/aXWw74hAO4mnbLjHGbK9z+nbf92+rFzebzV6jqtUvtC85jnPphg0bflwrjuu6F6rqQyLSXeu8iNzned7vTS73zRFH21Zc1x0E5tc4Nwass9ZuTKVSb+Xz+b2XXXZZOpVKLVFV11p7Yx0RdonIX1trN5VKpdd7enoSpVLpl1T1d4E1NOjUFRHX87z+SK6s2nYcRl3X9QB3itFfA74HXBFBVgojIyNzt27deiACW0cQy6C3iPxrC3FvM8b8QRT5UNXH4xIOYhKvXC57TL2Z9uzy5csHW4h/CBF5uFUbjYhFvE2bNg0yxZfRcrn8etjMG2wxG9YY47dooyGx+aqo6j9PMeosABFZIyJXAFPtEXl048aNr08x7qSITbyurq4HCLrPm0JEzgDwPO87nuflCZpYTSMi/ziVeE2lEafxTCbzJRG5ocloz1lrb3Acx6rqx4BP0fzL/OsLFixYHHfTMFa/NmPM3ar6aZobXP9lY8yTqi0N9H+5HW3qWP3zPM97UVXzcaZRg52FQuEf2pFQO5wbbycYPmwLInL7li1b9rYlrXYkks1m86r60QZB7gS+WSqV3kilUinAKZfLswmevHNV9TjgDBG5AFjWwM7LyWRyaT6fH2sQJjLa4strjLm5XC5fCtT03CwWi3/+8MMPH+FuUU0ul3OKxeIAga9eNSURubpdwkEbB70zmcx1InJ3jVM7fd+fD+C67krgnwhKnEPQytgnIld5nvdkGOa/gRVVNlRVP9vf3/83sV1ADSJxMZsMAwMD/7ls2bLdInIiMJNAmNdU9U8GBgaeA9i+ffsrS5cu3aaqi4D5IvJ94HO+7z85bmfp0qWnE3R27gKeB/pD4dr9YJo+d4vLL7+8x1o7qVGtyVTp6eCQeKGDznJVXSgi80PnnC4CB51uVZ0BHEswjHcMwf3ykPO0iKRUtdIbqZEjT9TsA0oV33dP8LkI7FfVPSIyIiIHrLV7gX3GmAOqOiwig8Vi8bWHHnrojXqJCiDZbHa9ql4V1ZW8xxhIp9Mr1q9fP1p9wriu+xsd4RqyZNeuXdUOkwAYVf1Iu3NztCEiNT2xjIic0u7MHIUsqHXQAAvbnJGjDhGpLV7VE7JDbWqNBGLqjXd2OIx5tQ4agvexDo2p+b5qaJ/b/9FMzdrZEW9ydEpeC9QVb1rm5x9l1K22R/tElnZQt+R1mJi64nUEnJiaGnWq7eToiNcCHfFaoKZGHfEmR6fkTRVVrStehwkQkU61bYFOtW2BTrVtgbritc39672GIca1lt5D1NSoI97kqCtep9pOTKfktUDNAtYpeZOjU/KmitaZ19ApeZOgYnb5YSSYXvGKwICI/FhV3xSR6lUtIHCyORU4VVXf197sHaKmRtMh3v+IyL+IyGPz5s17tpmZOmvWrOkeHh4+W1UvIliLtN4iXFFTt+TFuqJrBdustTdt2rTpcYBcLnfs4ODgr2Sz2RNVtZtg/HiWqiYAjDE2dG8thQs4vHLgwIEBz/OeAZ4B7nBdNwfcS/wLuk6reD8cGRk5P5VKnRxOaPlwsVg8XkSovheP9/6MH688XywWcV33NWCTiKzzPO+bmUxGROTBmPNfV7wjfG1j4KmtW7cecF334nAmUBH4MvCMMWaHqh40xoxYa4dLpdLBUqmU6OrqOtYYc6y1drYxZr619kxjzGmquhq43lp7EPictfYZx4l9RkTNW4uhPSXvStd1z/F9/y4R+TVr7SW+798gIruttR9T1c+Uy+W/UNVvOI7zSCqVelJEnlDVJ0TkcVX1ReRqz/OuEZHFwJfGlxBJJBK/H3fmxxdOPOK467rPAufFnQFVHTXGXO153qEq5rru16mxEH8dislkckY+ny+HcS8EbgYujj63R/AT3/dPqz7YrpJHOJfjG319fZU/VK05ZPVIFovFRQCu694JPEp7hKtb8gxwsB0ZCElYayvXjGpGPMIqC9AbXZYmRlXritfuxQJ/HYKF84HjmolorR0Xr21z5qCxeDW3WBCRFyq+fg14Kfz8ErC+TrjJMBegUCgsnihgjTwtBgiXmGs27pSvp1G1rbc/xVfGPySTyRuB6wFU9bpCoXBjrXCTZHyZ36aqbJj2KQDGmB81G5fWrqdm7WwkXiWOtfapMLH/MMa0Um1+Hv5vWryKktdsaa+m2ev5Wa2DCd5Z1bCaa8c/lEqlT4jIIIDjOBcbY95XK9wkeS7837R4wHhV3zaFuK1cz0Atg4lkMvn9YrH4U2BR5QlVPbPi899VNJs21As3CXYD6+CwJ2czzFu1atXsQqHwg1QqZWli6LSF67GO4zxay2Yin88fzOVyZxQKhQscx1kCnGqtPUlEjiGYTzsLmFMRp4tgpnYlRY7cBEmBnao6JCKvA08bY761cePGN8PzUyl5pFKpxb7vb3NddwdT61WpnJs7RrCpyTi7VXVURIaBPar6GvBEvYUPp8VbYOXKlYl0Oj3CFHZfUdW+/v5+L4ZsNc20eAyk0+mTqC/cf6nqvUDtX3tq1T0WpsvdolaVVVW9xvf9c/v7+9em0+nlQK1FF9414k3LHAwRWVxjTOVrjuM8EnYWlIeGhm6y1l6ZSqWOJ1i+FwBVfdeI964peSLyVVX9W4JeljWJROKPw33LPlsVriNe9YHR0dEXOHzJ8m4AVa1+qJ00nduyVjJdU6eOEK+7u7u7VCp9xnGc44G5IvKVcOfQO6uCpp5//vlFBFuDTSvTIl6d+1Zu8+bNdxNuvbV27drk4ODg10Xkw9UBrbXn8v9RvN7e3uOosSCXqt6VyWTOEpFviYi+/fbbnw83Fa7FB4ANdc61jbbfOxr0piRE5FPAo6r6GLCygZnfjDxjU+DdJF4zrOjr67ssAjstEdfy5mmC/W6P+FPVSyLak2cvcCtT2EsyKiITb/Xq1aer6vuttaeEO6UchjFmNnW6z8NFvxoSjr7VHG8JF9EaE5G91tq3RGTEcZxd5XJ56Oyzz34jXLS6Q4f3CG3tkurr6ztPVVdYa+eLyLEE98E54f8k7yxtPr5eHwR9h101DQbxJnsNSrApcS0O9euJyMGK0bJ9BH2Vewg6cvcQ9PMNqeq2tj5trbUWKBtjbIXDoIZ/h3YhGN8LMqSRC1ozm543Cnsojaq0yxX5Q0TGt9EpJxIJ+3/nucMNsyEh5AAAAABJRU5ErkJggg==;clipPath=inset(37.96% 0% 3.7% 0%);" parent="wqi3Ne-OvxT0ib12nYfs-7" vertex="1">
          <mxGeometry x="2" y="60.47000000000003" width="79" height="63" as="geometry" />
        </mxCell>
        <mxCell id="wqi3Ne-OvxT0ib12nYfs-22" value="" style="shape=table;html=1;whiteSpace=wrap;startSize=0;container=1;collapsible=0;childLayout=tableLayout;align=left;rounded=0;shadow=0;sketch=1;arcSize=0;" parent="1" vertex="1">
          <mxGeometry x="339" y="-154" width="160" height="46" as="geometry" />
        </mxCell>
        <mxCell id="wqi3Ne-OvxT0ib12nYfs-23" value="" style="shape=tableRow;horizontal=0;startSize=0;swimlaneHead=0;swimlaneBody=0;top=0;left=0;bottom=0;right=0;collapsible=0;dropTarget=0;fillColor=none;points=[[0,0.5],[1,0.5]];portConstraint=eastwest;" parent="wqi3Ne-OvxT0ib12nYfs-22" vertex="1">
          <mxGeometry width="160" height="23" as="geometry" />
        </mxCell>
        <mxCell id="wqi3Ne-OvxT0ib12nYfs-24" value="request" style="shape=partialRectangle;html=1;whiteSpace=wrap;connectable=0;fillColor=none;top=0;left=0;bottom=0;right=0;overflow=hidden;" parent="wqi3Ne-OvxT0ib12nYfs-23" vertex="1">
          <mxGeometry width="50" height="23" as="geometry">
            <mxRectangle width="50" height="23" as="alternateBounds" />
          </mxGeometry>
        </mxCell>
        <mxCell id="wqi3Ne-OvxT0ib12nYfs-25" value="&lt;div style=&quot;text-align: center;&quot;&gt;&lt;font style=&quot;color: rgb(0, 0, 0);&quot;&gt;&lt;span style=&quot;background-color: transparent;&quot;&gt;/add&lt;/span&gt;&lt;/font&gt;&lt;/div&gt;" style="shape=partialRectangle;html=1;whiteSpace=wrap;connectable=0;fillColor=none;top=0;left=0;bottom=0;right=0;overflow=hidden;align=left;" parent="wqi3Ne-OvxT0ib12nYfs-23" vertex="1">
          <mxGeometry x="50" width="110" height="23" as="geometry">
            <mxRectangle width="110" height="23" as="alternateBounds" />
          </mxGeometry>
        </mxCell>
        <mxCell id="Rt1N-pxIK42p76PlTlSp-4" style="shape=tableRow;horizontal=0;startSize=0;swimlaneHead=0;swimlaneBody=0;top=0;left=0;bottom=0;right=0;collapsible=0;dropTarget=0;fillColor=none;points=[[0,0.5],[1,0.5]];portConstraint=eastwest;" parent="wqi3Ne-OvxT0ib12nYfs-22" vertex="1">
          <mxGeometry y="23" width="160" height="23" as="geometry" />
        </mxCell>
        <mxCell id="Rt1N-pxIK42p76PlTlSp-5" value="data" style="shape=partialRectangle;html=1;whiteSpace=wrap;connectable=0;fillColor=none;top=0;left=0;bottom=0;right=0;overflow=hidden;" parent="Rt1N-pxIK42p76PlTlSp-4" vertex="1">
          <mxGeometry width="50" height="23" as="geometry">
            <mxRectangle width="50" height="23" as="alternateBounds" />
          </mxGeometry>
        </mxCell>
        <mxCell id="Rt1N-pxIK42p76PlTlSp-6" value="app is not working" style="shape=partialRectangle;html=1;whiteSpace=wrap;connectable=0;fillColor=none;top=0;left=0;bottom=0;right=0;overflow=hidden;align=left;" parent="Rt1N-pxIK42p76PlTlSp-4" vertex="1">
          <mxGeometry x="50" width="110" height="23" as="geometry">
            <mxRectangle width="110" height="23" as="alternateBounds" />
          </mxGeometry>
        </mxCell>
        <mxCell id="QOYZr9UT259nmvgFcjF4-2" value="" style="curved=1;endArrow=classic;html=1;startArrow=none;startFill=0;endFill=1;strokeColor=#FF0000;flowAnimation=1;" parent="1" edge="1">
          <mxGeometry width="50" height="50" relative="1" as="geometry">
            <mxPoint x="610" y="-50" as="sourcePoint" />
            <mxPoint x="230" y="10.000000000000002" as="targetPoint" />
            <Array as="points">
              <mxPoint x="400" y="-100" />
            </Array>
          </mxGeometry>
        </mxCell>
        <mxCell id="QOYZr9UT259nmvgFcjF4-3" value="1" style="ellipse;whiteSpace=wrap;html=1;aspect=fixed;strokeWidth=2;fontFamily=Tahoma;spacingBottom=4;spacingRight=2;strokeColor=#FF6666;fontColor=#FF0000;" parent="1" vertex="1">
          <mxGeometry x="489.99999999999994" y="185" width="20" height="20" as="geometry" />
        </mxCell>
        <mxCell id="QOYZr9UT259nmvgFcjF4-7" value="2" style="ellipse;whiteSpace=wrap;html=1;aspect=fixed;strokeWidth=2;fontFamily=Tahoma;spacingBottom=4;spacingRight=2;strokeColor=#d3d3d3;" parent="1" vertex="1">
          <mxGeometry x="308" y="-141" width="20" height="20" as="geometry" />
        </mxCell>
        <mxCell id="QOYZr9UT259nmvgFcjF4-8" value="" style="curved=1;endArrow=classic;html=1;startArrow=none;startFill=0;endFill=1;strokeColor=#FF0000;flowAnimation=1;" parent="1" edge="1">
          <mxGeometry width="50" height="50" relative="1" as="geometry">
            <mxPoint x="170" y="70" as="sourcePoint" />
            <mxPoint x="350" y="190" as="targetPoint" />
            <Array as="points">
              <mxPoint x="110" y="210" />
            </Array>
          </mxGeometry>
        </mxCell>
        <mxCell id="QOYZr9UT259nmvgFcjF4-9" value="&lt;div&gt;the browser handles&amp;nbsp;&lt;/div&gt;&lt;div&gt;the malicious&amp;nbsp;&lt;span&gt;code&lt;/span&gt;&lt;/div&gt;" style="text;html=1;align=center;verticalAlign=middle;resizable=0;points=[];autosize=1;strokeColor=none;fillColor=none;fontColor=#FF0000;" parent="1" vertex="1">
          <mxGeometry x="250" y="38" width="130" height="30" as="geometry" />
        </mxCell>
        <mxCell id="QOYZr9UT259nmvgFcjF4-12" value="4" style="ellipse;whiteSpace=wrap;html=1;aspect=fixed;strokeWidth=2;fontFamily=Tahoma;spacingBottom=4;spacingRight=2;strokeColor=#FF6666;fontColor=#FF0000;" parent="1" vertex="1">
          <mxGeometry x="230.00000000000003" y="43" width="20" height="20" as="geometry" />
        </mxCell>
        <mxCell id="QOYZr9UT259nmvgFcjF4-15" value="" style="shape=table;html=1;whiteSpace=wrap;startSize=0;container=1;collapsible=0;childLayout=tableLayout;align=left;rounded=0;shadow=0;sketch=1;arcSize=0;strokeColor=#FF6666;fontColor=#FF0000;" parent="1" vertex="1">
          <mxGeometry x="415" y="-36.27" width="180" height="68" as="geometry" />
        </mxCell>
        <mxCell id="QOYZr9UT259nmvgFcjF4-16" value="" style="shape=tableRow;horizontal=0;startSize=0;swimlaneHead=0;swimlaneBody=0;top=0;left=0;bottom=0;right=0;collapsible=0;dropTarget=0;fillColor=none;points=[[0,0.5],[1,0.5]];portConstraint=eastwest;fontColor=#FF0000;" parent="QOYZr9UT259nmvgFcjF4-15" vertex="1">
          <mxGeometry width="180" height="33" as="geometry" />
        </mxCell>
        <mxCell id="QOYZr9UT259nmvgFcjF4-17" value="response" style="shape=partialRectangle;html=1;whiteSpace=wrap;connectable=0;fillColor=none;top=0;left=0;bottom=0;right=0;overflow=hidden;fontColor=#FF0000;" parent="QOYZr9UT259nmvgFcjF4-16" vertex="1">
          <mxGeometry width="60" height="33" as="geometry">
            <mxRectangle width="60" height="33" as="alternateBounds" />
          </mxGeometry>
        </mxCell>
        <mxCell id="QOYZr9UT259nmvgFcjF4-18" value="&lt;span style=&quot;text-align: center&quot;&gt;success&lt;/span&gt;" style="shape=partialRectangle;html=1;whiteSpace=wrap;connectable=0;fillColor=none;top=0;left=0;bottom=0;right=0;overflow=hidden;align=left;fontColor=#FF0000;" parent="QOYZr9UT259nmvgFcjF4-16" vertex="1">
          <mxGeometry x="60" width="120" height="33" as="geometry">
            <mxRectangle width="120" height="33" as="alternateBounds" />
          </mxGeometry>
        </mxCell>
        <mxCell id="QOYZr9UT259nmvgFcjF4-19" value="" style="shape=tableRow;horizontal=0;startSize=0;swimlaneHead=0;swimlaneBody=0;top=0;left=0;bottom=0;right=0;collapsible=0;dropTarget=0;fillColor=none;points=[[0,0.5],[1,0.5]];portConstraint=eastwest;fontColor=#FF0000;" parent="QOYZr9UT259nmvgFcjF4-15" vertex="1">
          <mxGeometry y="33" width="180" height="35" as="geometry" />
        </mxCell>
        <mxCell id="QOYZr9UT259nmvgFcjF4-20" value="data" style="shape=partialRectangle;html=1;whiteSpace=wrap;connectable=0;fillColor=none;top=0;left=0;bottom=0;right=0;overflow=hidden;fontColor=#FF0000;" parent="QOYZr9UT259nmvgFcjF4-19" vertex="1">
          <mxGeometry width="60" height="35" as="geometry">
            <mxRectangle width="60" height="35" as="alternateBounds" />
          </mxGeometry>
        </mxCell>
        <mxCell id="QOYZr9UT259nmvgFcjF4-21" value="&lt;div&gt;#2 app is not working&lt;/div&gt;&lt;font&gt;&lt;div style=&quot;text-align: left;&quot;&gt;&lt;span style=&quot;background-color: transparent; text-align: center;&quot;&gt;&lt;font style=&quot;&quot;&gt;#1&amp;nbsp;&lt;/font&gt;&lt;font style=&quot;&quot;&gt;payload&lt;/font&gt;&lt;/span&gt;&lt;/div&gt;&lt;/font&gt;" style="shape=partialRectangle;html=1;whiteSpace=wrap;connectable=0;fillColor=none;top=0;left=0;bottom=0;right=0;overflow=hidden;align=left;fontColor=#FF0000;" parent="QOYZr9UT259nmvgFcjF4-19" vertex="1">
          <mxGeometry x="60" width="120" height="35" as="geometry">
            <mxRectangle width="120" height="35" as="alternateBounds" />
          </mxGeometry>
        </mxCell>
        <mxCell id="fjHHEl89lvxCk0q90pSw-2" value="malicious code sends &lt;br&gt;info to the adversary" style="text;html=1;align=center;verticalAlign=middle;resizable=0;points=[];autosize=1;strokeColor=none;fillColor=none;fontColor=#FF0000;" parent="1" vertex="1">
          <mxGeometry x="230" y="140" width="130" height="30" as="geometry" />
        </mxCell>
        <mxCell id="fjHHEl89lvxCk0q90pSw-3" value="5" style="ellipse;whiteSpace=wrap;html=1;aspect=fixed;strokeWidth=2;fontFamily=Tahoma;spacingBottom=4;spacingRight=2;strokeColor=#FF6666;fontColor=#FF0000;" parent="1" vertex="1">
          <mxGeometry x="201.00000000000003" y="145" width="20" height="20" as="geometry" />
        </mxCell>
        <mxCell id="fjHHEl89lvxCk0q90pSw-4" value="3" style="ellipse;whiteSpace=wrap;html=1;aspect=fixed;strokeWidth=2;fontFamily=Tahoma;spacingBottom=4;spacingRight=2;strokeColor=#FF6666;fontColor=#FF0000;" parent="1" vertex="1">
          <mxGeometry x="382" y="-12.27" width="20" height="20" as="geometry" />
        </mxCell>
      </root>
    </mxGraphModel>
  </diagram>
</mxfile>
